{"title":"Falling In Reverse - The Drug In Me Is You -2011 (UJ.rip)","uid":6511090,"size":71808953,"categoryP":"video","categoryS":"music_videos","magnet":"?xt=urn:btih:e65767f10636f21c799670c4e9cd03f89a4cfd11&amp;dn=Falling+In+Reverse+-+The+Drug+In+Me+Is+You+-2011+%28UJ.rip%29&amp;tr=udp%3A%2F%2Ftracker.openbittorrent.com%3A80&amp;tr=udp%3A%2F%2Fopen.demonii.com%3A1337&amp;tr=udp%3A%2F%2Ftracker.coppersurfer.tk%3A6969&amp;tr=udp%3A%2F%2Fexodus.desync.com%3A6969","seeders":0,"leechers":1,"uploader":"utpaljoshi123","files":35,"time":1309624627,"description":"PLEASE SEED!!\n\nFalling In Reverse - The Drug In Me Is You -2011 (UJ.rip)\n--------------------------------------------------------\nFormat                           : AVI\nFormat/Info                      : Audio Video Interleave\nFile size                        : 67.6 MiB\nDuration                         : 3mn 48s\nOverall bit rate                 : 2 479 Kbps\nWriting application              : Lavf52.39.1\n\nVideo\nID                               : 0\nFormat                           : MPEG-4 Visual\nFormat profile                   : Advanced Simple@L1\nFormat settings, BVOP            : 2\nFormat settings, QPel            : No\nFormat settings, GMC             : No warppoints\nFormat settings, Matrix          : Default (H.263)\nCodec ID                         : divx\nCodec ID/Info                    : Mainly used by Google\nCodec ID/Hint                    : DivX\nDuration                         : 3mn 48s\nBit rate                         : 2 403 Kbps\nWidth                            : 720 pixels\nHeight                           : 576 pixels\nDisplay aspect ratio             : 4:3\nFrame rate                       : 24.000 fps\nStandard                         : PAL\nColor space                      : YUV\nChroma subsampling               : 4:2:0\nBit depth                        : 8 bits\nScan type                        : Progressive\nCompression mode                 : Lossy\nBits/(Pixel*Frame)               : 0.241\nStream size                      : 65.5 MiB (97%)\nWriting library                  : Lavc52.37.0\n\nAudio\nID                               : 1\nFormat                           : MPEG Audio\nFormat version                   : Version 1\nFormat profile                   : Layer 3\nMode                             : Joint stereo\nMode extension                   : MS Stereo\nCodec ID                         : 55\nCodec ID/Hint                    : MP3\nDuration                         : 3mn 48s\nBit rate mode                    : Constant\nBit rate                         : 64.0 Kbps\nChannel(s)                       : 2 channels\nSampling rate                    : 44.1 KHz\nCompression mode                 : Lossy\nStream size                      : 1.75 MiB (3%)\nAlignment                        : Aligned on interleaves\nInterleave, duration             : 26 ms (0.63 video frame)\nWriting library                  : LAME3.96.1\n\n-------------------------------------------------------------\n &lt;a href=&quot;\nhttp://thepiratebay.se/user/utpaljoshi123&quot; rel=&quot;nofollow&quot; target=&quot;_NEW&quot;&gt;\nhttp://thepiratebay.se/user/utpaljoshi123&lt;/a&gt;\n","torrent":{"xt":"urn:btih:e65767f10636f21c799670c4e9cd03f89a4cfd11","amp;dn":"Falling+In+Reverse+-+The+Drug+In+Me+Is+You+-2011+%28UJ.rip%29","amp;tr":["udp%3A%2F%2Ftracker.openbittorrent.com%3A80","udp%3A%2F%2Fopen.demonii.com%3A1337","udp%3A%2F%2Ftracker.coppersurfer.tk%3A6969","udp%3A%2F%2Fexodus.desync.com%3A6969"],"infoHash":"e65767f10636f21c799670c4e9cd03f89a4cfd11","infoHashBuffer":{"type":"Buffer","data":[230,87,103,241,6,54,242,28,121,150,112,196,233,205,3,248,154,76,253,17]},"announce":[],"urlList":[]}}